<?xml version="1.0" encoding="UTF-8" standalone="no"?>
<!-- Created with Inkscape (http://www.inkscape.org/) -->

<svg
   width="188.9014mm"
   height="50.781898mm"
   viewBox="0 0 188.9014 50.781898"
   version="1.1"
   id="svg1"
   xml:space="preserve"
   xmlns="http://www.w3.org/2000/svg"
   xmlns:svg="http://www.w3.org/2000/svg"><defs
     id="defs1" /><g
     id="layer1"
     transform="translate(-238.05066,-104.62411)"><rect
       style="fill:#6366f1;fill-opacity:1;stroke-width:0.283305"
       id="rect1"
       width="185.20995"
       height="47.040371"
       x="238.70108"
       y="106.29206"
       ry="23.520185" /><path
       style="fill:#ffffff;fill-opacity:1"
       d="m 259.59192,155.14714 c -28.90091,-3.72047 -28.64212,-46.60667 0.30314,-50.2361 3.05116,-0.38258 142.12797,-0.38258 145.17913,0 29.17048,3.65767 29.17048,46.59151 0,50.24918 -2.68025,0.33607 -142.86792,0.32347 -145.48227,-0.0131 z m 147.76979,-4.54171 c 20.88094,-6.11076 20.78642,-35.50551 -0.13229,-41.14088 -2.66628,-0.71828 -146.82331,-0.71828 -149.48959,0 -21.5464,5.80447 -20.76114,36.49378 1.05834,41.36128 2.65827,0.59301 146.51331,0.3796 148.56354,-0.2204 z M 304.04339,135.26116 c 0.003,-10.00495 0.51992,-10.59226 9.45738,-10.73513 5.35781,-0.0856 5.35781,-0.0856 5.35781,1.91823 0,2.00387 0,2.00387 -4.98607,2.00387 -6.45044,0 -5.86184,-0.6862 -5.86184,6.83386 0,5.86614 0,5.86614 -1.98438,5.86614 -1.98437,0 -1.98437,0 -1.9829,-5.88697 z m 22.6204,5.51687 c -4.47132,-1.41409 -5.42396,-3.37897 -5.42396,-11.18729 0,-5.11136 0,-5.11136 1.98438,-5.11136 1.98437,0 1.98437,0 1.98828,5.09323 0.006,7.43036 0.15684,7.60677 6.51751,7.60677 4.06192,0 4.06192,0 4.06192,-6.35 0,-6.35 0,-6.35 1.98437,-6.35 2.13316,0 3.30401,14.05026 1.33495,16.01932 -0.76509,0.76509 -10.23925,0.97769 -12.44745,0.27933 z m 17.06563,-7.4159 c 0,-9.87028 -0.73789,-8.95951 7.16044,-8.83818 9.87187,0.15163 11.09161,1.39029 11.09433,11.26637 0.002,5.35781 0.002,5.35781 -1.9829,5.35781 -1.98437,0 -1.98437,0 -1.98437,-5.18469 0,-7.43589 -0.0696,-7.51531 -6.58843,-7.51531 -3.9949,0 -3.9949,0 -3.9949,6.35 0,6.35 0,6.35 -1.85209,6.35 -1.85208,0 -1.85208,0 -1.85208,-7.786 z m 21.96041,-0.54837 c 0,-8.33438 0,-8.33438 1.98438,-8.33438 1.98437,0 1.98437,0 1.98437,8.33438 0,8.33437 0,8.33437 -1.98437,8.33437 -1.98438,0 -1.98438,0 -1.98438,-8.33437 z m 11.41066,7.9381 c -4.15656,-1.29642 -5.53664,-11.10362 -2.05276,-14.5875 2.80147,-2.80147 14.71919,-2.55905 14.71919,0.2994 0,1.98437 0,1.98437 -5.80194,1.98437 -7.18711,0 -6.63348,-0.3625 -6.63348,4.34352 0,4.72893 -0.52112,4.38773 6.70156,4.38773 5.73386,0 5.73386,0 5.73386,1.98438 0,1.98651 -8.12349,3.00502 -12.66643,1.5881 z m -101.76586,-0.43841 c -0.85324,-0.46669 -1.19119,-1.05561 -1.18221,-2.06016 0.02,-2.24381 2.82909,-3.18519 4.22169,-1.41478 1.53843,1.95579 -0.84177,4.67699 -3.03948,3.47494 z m 11.60383,0.0432 c -1.36946,-0.55264 -1.81728,-2.33288 -0.88498,-3.5181 1.35366,-1.72091 4.20013,-0.83668 4.22169,1.31142 0.0193,1.92076 -1.52101,2.93941 -3.33671,2.20668 z m -11.44754,-10.59938 c -1.7584,-0.73069 -1.89592,-3.25604 -0.22438,-4.12042 2.33489,-1.20742 4.74321,1.52811 3.04465,3.45831 -0.67695,0.76927 -1.88173,1.05211 -2.82027,0.66211 z m 90.19891,-10.70184 c 0,-1.7198 0,-1.7198 1.98438,-1.7198 1.98437,0 1.98437,0 1.98437,1.7198 0,1.71979 0,1.71979 -1.98437,1.71979 -1.98438,0 -1.98438,0 -1.98438,-1.71979 z"
       id="path1" /></g></svg>
